# xmcd
# Copyright (C) 1995-1998 Ti Kan
#
# Track frame offsets:
#       150
#       9895
#       34181
#       66167
#       87901
#       112745
#       138369
#       167588
#       191372
#       223116
#       240417
#       249862
#
# Disc length: 3538 seconds
#
# Revision: 0
# Processed by: cddbd v1.5.2PL0 Copyright (c) Steve Scherf et al.
# Submitted via: CD-Import v1.0
#
DISCID=8e0dd00c
DTITLE=Motek - Urban
DYEAR=1900
DGENRE=
TTITLE0=Red Carpet (Intro)
TTITLE1=Le Soleil Chauffe
TTITLE2=Easy Chill
TTITLE3=L'ame Brulé
TTITLE4=Get It On
TTITLE5=Between Sleep And Floor
TTITLE6=Urban
TTITLE7=Traverser Sans Pont
TTITLE8=Upspace
TTITLE9=Modest People
TTITLE10=James' Wig
TTITLE11=Vin Rouge (Outro)
EXTD=
EXTT0=
EXTT1=
EXTT2=
EXTT3=
EXTT4=
EXTT5=
EXTT6=
EXTT7=
EXTT8=
EXTT9=
EXTT10=
EXTT11=
PLAYORDER=
